<svg height="16" viewBox="0 0 16 16" width="16" xmlns="http://www.w3.org/2000/svg"><path d="m10.7226 16.0009c1.5316 0 2.7608-1.189 2.8213-2.7206l.3224-9.95518h1.5115c.2216 0 .403-.18137.403-.40305 0-.22167-.1814-.40304-.403-.40304h-4.232v-.90685c0-.8867-.7255-1.61218-1.61219-1.61218h-3.06314c-.8867 0-1.61218.72548-1.61218 1.61218v.90685h-4.25212c-.221675 0-.403045.18137-.403045.40304 0 .22168.18137.40305.403045.40305h1.51142l.32243 9.95518c.06046 1.5316 1.28975 2.7206 2.82132 2.7206zm-5.05822-14.38872c0-.44335.36274-.806091.80609-.806091h3.06314c.44335 0 .80609.362741.80609.806091v.90685h-4.67532zm-2.39812 11.62782-.32243-9.93503h10.13657l-.3426 9.93503c-.0403 1.0882-.927 1.9548-2.0152 1.9548h-5.44111c-1.08822 0-1.97492-.8464-2.01523-1.9548z"/><path d="m8.00265 12.6151c.22168 0 .40305-.1814.40305-.4031v-6.02551c0-.22167-.18137-.40304-.40305-.40304-.22167 0-.40304.18137-.40304.40304v6.02551c0 .2217.18137.4031.40304.4031z"/><path d="m5.58468 12.6151c.22168 0 .40305-.1814.40305-.4031v-6.02551c0-.22167-.18137-.40304-.40305-.40304-.22167 0-.40304.18137-.40304.40304v6.02551c0 .2217.18137.4031.40304.4031z"/><path d="m10.4206 12.6151c.2217 0 .4031-.1814.4031-.4031v-6.02551c0-.22167-.1814-.40304-.4031-.40304s-.403.18137-.403.40304v6.02551c0 .2217.1813.4031.403.4031z"/></svg> 5.18164 5.96482 5.18164 6.18649V12.212C5.18164 12.4337 5.36301 12.6151 5.58468 12.6151Z"/>
<path d="M10.4206 12.6151C10.6423 12.6151 10.8237 12.4337 10.8237 12.212V6.18649C10.8237 5.96482 10.6423 5.78345 10.4206 5.78345C10.1989 5.78345 10.0176 5.96482 10.0176 6.18649V12.212C10.0176 12.4337 10.1989 12.6151 10.4206 12.6151Z"/>
</svg>
