<svg width="20" height="20" viewBox="0 0 20 20" xmlns="http://www.w3.org/2000/svg">
<path fill-rule="evenodd" clip-rule="evenodd" d="M4.82084 8.60805C4.82084 11.5227 4.29089 12.9699 3.72019 13.6629H15.9089C15.3382 12.9699 14.8082 11.5431 14.8082 8.60805C14.8082 5.50992 12.9942 4.22583 11.547 3.67551C11.6082 3.49206 11.6489 3.28824 11.6489 3.08442C11.6489 2.0653 10.8336 1.25 9.81452 1.25C8.7954 1.25 7.98011 2.0653 7.98011 3.08442C7.98011 3.28824 8.02087 3.49206 8.08202 3.67551C6.63487 4.22583 4.82084 5.5303 4.82084 8.60805ZM9.81452 2.0653C10.3852 2.0653 10.8336 2.51371 10.8336 3.08442C10.8336 3.20671 10.8133 3.329 10.7725 3.4513C9.9572 3.24747 9.22343 3.36977 8.85655 3.4513C8.81578 3.329 8.7954 3.20671 8.7954 3.08442C8.7954 2.51371 9.24381 2.0653 9.81452 2.0653ZM6.34951 7.71122C6.57372 6.10101 8.12278 5.20419 8.18393 5.1838C8.38775 5.08189 8.63234 5.14304 8.73426 5.32648C8.83617 5.5303 8.77502 5.77489 8.59158 5.8768C8.59005 5.87833 8.58163 5.88377 8.56729 5.89302C8.39062 6.00704 7.31563 6.70084 7.16481 7.81313C7.14443 8.01696 6.96099 8.15963 6.75716 8.15963H6.69602C6.47181 8.13925 6.32913 7.93543 6.34951 7.71122ZM9.81407 18.5752C10.8943 18.5752 11.7912 17.7803 11.9338 16.7408H7.6943C7.83697 17.7803 8.7338 18.5752 9.81407 18.5752ZM16.8917 14.7266C16.858 14.8332 16.8258 14.9352 16.8258 15.0081C16.8258 15.6196 16.3366 16.1291 15.7252 16.1291H9.87542H9.77351H3.92377C3.31229 16.1291 2.80273 15.6196 2.80273 15.0081C2.80273 14.8247 2.80273 14.4578 2.88426 14.2947H16.9481C16.9972 14.393 16.9428 14.5651 16.8917 14.7266Z"/>
</svg>
