<svg width="16" height="16" viewBox="0 0 16 16" xmlns="http://www.w3.org/2000/svg">
<path d="M10.7226 16.0009C12.2542 16.0009 13.4834 14.8119 13.5439 13.2803L13.8663 3.32512H15.3778C15.5994 3.32512 15.7808 3.14375 15.7808 2.92207C15.7808 2.7004 15.5994 2.51903 15.3778 2.51903L11.1458 2.51903V1.61218C11.1458 0.72548 10.4203 0 9.53361 0L6.47047 0C5.58377 0 4.85829 0.72548 4.85829 1.61218V2.51903H0.60617C0.384495 2.51903 0.203125 2.7004 0.203125 2.92207C0.203125 3.14375 0.384495 3.32512 0.60617 3.32512H2.11759L2.44002 13.2803C2.50048 14.8119 3.72977 16.0009 5.26134 16.0009H10.7226ZM5.66438 1.61218C5.66438 1.16883 6.02712 0.806089 6.47047 0.806089L9.53361 0.806089C9.97696 0.806089 10.3397 1.16883 10.3397 1.61218V2.51903H5.66438V1.61218ZM3.26626 13.24L2.94383 3.30497L13.0804 3.30497L12.7378 13.24C12.6975 14.3282 11.8108 15.1948 10.7226 15.1948H5.28149C4.19327 15.1948 3.30657 14.3484 3.26626 13.24Z"/>
<path d="M8.00265 12.6151C8.22433 12.6151 8.4057 12.4337 8.4057 12.212V6.18649C8.4057 5.96482 8.22433 5.78345 8.00265 5.78345C7.78098 5.78345 7.59961 5.96482 7.59961 6.18649V12.212C7.59961 12.4337 7.78098 12.6151 8.00265 12.6151Z"/>
<path d="M5.58468 12.6151C5.80636 12.6151 5.98773 12.4337 5.98773 12.212V6.18649C5.98773 5.96482 5.80636 5.78345 5.58468 5.78345C5.36301 5.78345 5.18164 5.96482 5.18164 6.18649V12.212C5.18164 12.4337 5.36301 12.6151 5.58468 12.6151Z"/>
<path d="M10.4206 12.6151C10.6423 12.6151 10.8237 12.4337 10.8237 12.212V6.18649C10.8237 5.96482 10.6423 5.78345 10.4206 5.78345C10.1989 5.78345 10.0176 5.96482 10.0176 6.18649V12.212C10.0176 12.4337 10.1989 12.6151 10.4206 12.6151Z"/>
</svg>
