<svg width="24" height="24" viewBox="0 0 24 24" fill="none" xmlns="http://www.w3.org/2000/svg">
<circle cx="12" cy="12" r="11" fill="#A8D741"/>
<path d="M17.5326 7.63071C17.4185 7.64829 17.3131 7.70597 17.2331 7.79461C14.5659 10.6431 13.4256 12.2014 10.7597 15.0667L7.60385 12.4053C7.55128 12.3585 7.49055 12.3232 7.42514 12.3014C7.35974 12.2797 7.29095 12.2719 7.22273 12.2786C7.1545 12.2853 7.08819 12.3063 7.02759 12.3403C6.96699 12.3744 6.91329 12.4208 6.86959 12.477C6.82589 12.5333 6.79304 12.5981 6.77292 12.6679C6.75281 12.7377 6.74583 12.8111 6.75239 12.8837C6.75894 12.9564 6.7789 13.027 6.81112 13.0914C6.84334 13.1558 6.88719 13.2129 6.94014 13.2592L10.4683 16.2483C10.5675 16.3358 10.6939 16.3808 10.8226 16.3744C10.9513 16.368 11.0731 16.3108 11.1644 16.2138C13.9377 13.2521 15.2095 11.5186 17.9616 8.57949C18.0419 8.49909 18.0961 8.39347 18.1163 8.27801C18.1364 8.16254 18.1215 8.04325 18.0737 7.93745C18.0258 7.83164 17.9476 7.74485 17.8503 7.68969C17.753 7.63453 17.6417 7.61386 17.5326 7.63071Z" fill="#F9F9F9"/>
</svg>
