<svg width="16" height="16" viewBox="0 0 16 16" fill="none" xmlns="http://www.w3.org/2000/svg">
<path d="M14.323 3.00652C14.1925 3.02662 14.0721 3.09254 13.9807 3.19384C10.9325 6.44923 9.62931 8.23019 6.58246 11.5048L2.97582 8.4632C2.91574 8.4097 2.84634 8.36935 2.77159 8.34451C2.69685 8.31966 2.61823 8.3108 2.54026 8.31842C2.46229 8.32604 2.3865 8.35001 2.31724 8.38892C2.24798 8.42784 2.18662 8.48094 2.13667 8.5452C2.08673 8.60945 2.04919 8.68359 2.0262 8.76335C2.00321 8.84311 1.99524 8.92693 2.00273 9.00998C2.01022 9.09303 2.03303 9.1737 2.06985 9.24733C2.10668 9.32096 2.15679 9.38613 2.2173 9.43907L6.24945 12.8552C6.36291 12.9552 6.50727 13.0066 6.65436 12.9993C6.80145 12.992 6.94072 12.9266 7.04497 12.8158C10.2145 9.43093 11.668 7.44986 14.8133 4.09085C14.9051 3.99896 14.967 3.87826 14.99 3.7463C15.013 3.61434 14.996 3.478 14.9413 3.35708C14.8866 3.23616 14.7972 3.13697 14.686 3.07393C14.5748 3.01089 14.4476 2.98727 14.323 3.00652Z" fill="#A8D741"/>
</svg>
