<svg width="24" height="24" viewBox="0 0 24 24" fill="none" xmlns="http://www.w3.org/2000/svg">
<circle cx="12" cy="12" r="11" fill="#F12260"/>
<path fill-rule="evenodd" clip-rule="evenodd" d="M16.9412 7.05934C17.1117 7.2299 17.1117 7.50643 16.9412 7.67699L7.67673 16.9414C7.50617 17.112 7.22963 17.112 7.05907 16.9414C6.88851 16.7709 6.88851 16.4943 7.05907 16.3238L16.3235 7.05934C16.4941 6.88877 16.7706 6.88878 16.9412 7.05934Z" fill="#F9F9F9"/>
<path fill-rule="evenodd" clip-rule="evenodd" d="M16.9412 16.9407C16.7706 17.1112 16.4941 17.1112 16.3235 16.9407L7.05908 7.67622C6.88852 7.50566 6.88851 7.22912 7.05908 7.05856C7.22964 6.888 7.50617 6.888 7.67673 7.05856L16.9412 16.323C17.1117 16.4936 17.1117 16.7701 16.9412 16.9407Z" fill="#F9F9F9"/>
</svg>
