<svg width="16" height="16" viewBox="0 0 16 16" xmlns="http://www.w3.org/2000/svg">
    <path fill-rule="evenodd" clip-rule="evenodd" d="M12.3845 5.94192H13.6537C13.845 5.94192 13.9998 6.09672 14 6.28803V10.0132C14 13.3215 11.3085 16.0133 7.99988 16.0133C4.69153 16.0133 2 13.3217 2 10.0132V6.28803C2 6.09695 2.15479 5.94192 2.3461 5.94192H3.6153V4.38482C3.6153 1.96705 5.58188 0 7.99965 0C10.4172 0 12.3845 1.96705 12.3845 4.38482V5.94192ZM7.99965 0.69244C5.96379 0.69244 4.3075 2.34873 4.3075 4.38482L4.30774 5.94192H5.36466V4.3893C5.36466 2.93633 6.54668 1.75407 7.99965 1.75407C9.45261 1.75407 10.6349 2.93633 10.6349 4.3893V5.94192H11.6923V4.38482C11.6923 2.34873 10.0357 0.69244 7.99965 0.69244ZM6.0571 5.94192H9.94243V4.3893C9.94243 3.31801 9.07094 2.44651 7.99965 2.44651C6.92836 2.44651 6.0571 3.31801 6.0571 4.3893V5.94192ZM7.99965 15.3211C10.9265 15.3211 13.3073 12.9401 13.3073 10.0132V6.63413H2.69197V10.0132C2.69197 12.9401 5.07298 15.3211 7.99965 15.3211ZM6.83356 11.9215L7.13066 10.5873C6.8543 10.3413 6.68984 9.98671 6.68984 9.61281C6.68984 8.89068 7.2772 8.30332 7.99909 8.30332C8.72122 8.30332 9.30881 8.89068 9.30881 9.61281C9.30881 9.98647 9.14436 10.3413 8.868 10.5875L9.1651 11.922C9.18748 12.0244 9.16274 12.1316 9.09701 12.2136C9.03151 12.2956 8.93232 12.3432 8.827 12.3432H7.17142C7.06634 12.3432 6.96691 12.2954 6.90118 12.2134C6.83545 12.1314 6.81047 12.024 6.83356 11.9215ZM8.61638 9.61281C8.61638 9.27259 8.33954 8.99576 7.99909 8.99576C7.65912 8.99576 7.38228 9.27259 7.38228 9.61281C7.38228 9.83215 7.49796 10.0305 7.6921 10.1431C7.82215 10.219 7.88883 10.3705 7.85561 10.5178L7.60304 11.6508H8.39538L8.14281 10.5175C8.11053 10.3703 8.1765 10.219 8.30679 10.1431C8.50069 10.0303 8.61638 9.83192 8.61638 9.61281Z"/>
</svg>
