<svg width="24" height="24" viewBox="0 0 24 24" fill="none" xmlns="http://www.w3.org/2000/svg">
<path d="M6 10.5248V15.281C6 18.4397 8.6862 21 11.9998 21C15.3135 21 18 18.4393 18 15.281V10.5248H6ZM12.6788 15.5588L13.0182 17.6447H10.9815L11.3208 15.5588C10.9235 15.3359 10.654 14.9284 10.654 14.4568C10.654 13.7485 11.2563 13.1741 11.9998 13.1741C12.7433 13.1741 13.3456 13.7482 13.3456 14.4568C13.346 14.9284 13.0762 15.3359 12.6788 15.5588ZM9.4755 7.34734C9.4755 6.02059 10.6079 4.94128 11.9998 4.94128C13.3918 4.94128 14.5242 6.02059 14.5242 7.34734V9.23072H16.5609V7.34734C16.5609 4.95001 14.515 3 11.9998 3C9.48466 3 7.43913 4.95033 7.43913 7.34734V9.23072H9.47584L9.4755 7.34734Z" fill="black" fill-opacity="0.32"/>
</svg>
