<svg width="138" height="26" viewBox="0 0 138 26" xmlns="http://www.w3.org/2000/svg">
    <path d="M5.05052 16.5838H15.7305V19.7998H0.922516V2.9998H15.3225V6.2158H5.05052V9.7438H13.0905V12.7678H5.05052V16.5838ZM32.0321 2.9998V6.3838H22.8161V19.7998H18.6881V2.9998H32.0321ZM41.833 2.7118C44.681 2.7118 46.897 3.4958 48.481 5.0638C50.081 6.6158 50.881 8.7278 50.881 11.3998C50.881 14.0718 50.065 16.1918 48.433 17.7598C46.801 19.3118 44.521 20.0878 41.593 20.0878C39.161 20.0878 37.225 19.5758 35.785 18.5518C34.345 17.5118 33.465 16.0478 33.145 14.1598L37.153 13.9438C37.409 14.7758 37.913 15.4478 38.665 15.9598C39.433 16.4718 40.409 16.7278 41.593 16.7278C42.969 16.7278 44.089 16.3758 44.953 15.6718C45.833 14.9678 46.393 13.9998 46.633 12.7678H40.177V9.7438H46.561C46.289 8.6238 45.753 7.7358 44.953 7.0798C44.169 6.4078 43.129 6.0718 41.833 6.0718C40.745 6.0718 39.801 6.3038 39.001 6.7678C38.201 7.2318 37.673 7.8478 37.417 8.6158L33.433 8.3518C33.801 6.6078 34.713 5.2318 36.169 4.2238C37.641 3.2158 39.529 2.7118 41.833 2.7118ZM63.2044 7.2238H67.1404V19.7998H63.2044V14.9998H57.2764V19.7998H53.3404V7.2238H57.2764V11.7598H63.2044V7.2238ZM76.7479 6.9358C78.8759 6.9358 80.5079 7.4078 81.6439 8.3518C82.7959 9.2958 83.3719 10.7278 83.3719 12.6478V19.7998H79.6999V17.4958C78.5959 19.2238 76.8279 20.0878 74.3959 20.0878C72.8119 20.0878 71.6039 19.7358 70.7719 19.0318C69.9399 18.3278 69.5239 17.4078 69.5239 16.2718C69.5239 14.9918 70.0439 14.0478 71.0839 13.4398C72.1399 12.8158 73.6759 12.4238 75.6919 12.2638L79.4359 11.9758V11.8078C79.4359 11.1518 79.2119 10.6318 78.7639 10.2478C78.3159 9.8638 77.6439 9.6638 76.7479 9.6478C75.1319 9.6478 74.2039 10.1598 73.9639 11.1838H70.3159C70.3639 10.3998 70.5719 9.7278 70.9399 9.1678C71.3239 8.5918 71.8199 8.1518 72.4279 7.8478C73.0359 7.5278 73.6919 7.2958 74.3959 7.1518C75.1159 7.0078 75.8999 6.9358 76.7479 6.9358ZM75.5719 17.3998C76.7239 17.3998 77.6519 17.1278 78.3559 16.5838C79.0759 16.0398 79.4359 15.3998 79.4359 14.6638V14.2558L76.2199 14.4958C74.3639 14.6558 73.4359 15.1758 73.4359 16.0558C73.4359 16.4718 73.6199 16.7998 73.9879 17.0398C74.3559 17.2798 74.8839 17.3998 75.5719 17.3998ZM98.6391 7.2238V10.4638H93.7671V19.7998H89.8311V10.4638H84.9591V7.2238H98.6391ZM101.845 18.3358C100.469 17.1518 99.7806 15.5438 99.7806 13.5118C99.7806 11.4798 100.469 9.8798 101.845 8.7118C103.221 7.5278 105.061 6.9358 107.365 6.9358C109.685 6.9358 111.525 7.5278 112.885 8.7118C114.261 9.8798 114.949 11.4798 114.949 13.5118C114.949 15.5438 114.261 17.1518 112.885 18.3358C111.525 19.5038 109.685 20.0878 107.365 20.0878C105.061 20.0878 103.221 19.5038 101.845 18.3358ZM104.653 10.9678C104.013 11.6238 103.693 12.4718 103.693 13.5118C103.693 14.5518 104.013 15.4078 104.653 16.0798C105.309 16.7358 106.213 17.0638 107.365 17.0638C108.517 17.0638 109.421 16.7358 110.077 16.0798C110.733 15.4078 111.061 14.5518 111.061 13.5118C111.061 12.4718 110.733 11.6238 110.077 10.9678C109.421 10.2958 108.517 9.9598 107.365 9.9598C106.213 9.9598 105.309 10.2958 104.653 10.9678ZM125.869 6.9358C127.709 6.9358 129.213 7.5278 130.381 8.7118C131.549 9.8798 132.133 11.4798 132.133 13.5118C132.133 15.5438 131.549 17.1518 130.381 18.3358C129.229 19.5038 127.741 20.0878 125.917 20.0878C123.853 20.0878 122.293 19.3758 121.237 17.9518V24.5998H117.301V7.2238H120.973V9.4318C121.981 7.7678 123.613 6.9358 125.869 6.9358ZM124.669 17.0638C125.757 17.0638 126.621 16.7438 127.261 16.1038C127.917 15.4478 128.245 14.5838 128.245 13.5118C128.245 12.4398 127.917 11.5838 127.261 10.9438C126.621 10.2878 125.757 9.9598 124.669 9.9598C123.549 9.9598 122.669 10.2878 122.029 10.9438C121.389 11.5838 121.069 12.4398 121.069 13.5118C121.069 14.5838 121.389 15.4478 122.029 16.1038C122.669 16.7438 123.549 17.0638 124.669 17.0638Z" fill="#FFF"/>
</svg>
