<svg width="18" height="12" viewBox="0 0 18 12" fill="none" xmlns="http://www.w3.org/2000/svg">
<path fill-rule="evenodd" clip-rule="evenodd" d="M2.79507 0.000423004C2.64493 0.0066028 2.50295 0.0664756 2.39947 0.169678C0.60161 1.89547 0 4.20223 0 5.95842C0 7.71459 0.607615 10.035 2.49275 11.8206C3.03581 12.3585 3.87584 11.564 3.30868 11.0489C1.69088 9.51647 1.15085 7.47237 1.15085 5.95842C1.15085 4.44445 1.69721 2.39561 3.2199 0.933988C3.59493 0.585077 3.32039 -0.01824 2.79507 0.000423004ZM5.34484 1.97187C5.17603 1.98011 5.01944 2.05778 4.91665 2.18477C3.79167 3.53879 3.5153 4.84898 3.50169 5.95523C3.48786 7.07931 3.79679 8.39261 4.96722 9.78529C5.44707 10.3445 6.33646 9.67242 5.86744 9.10508C4.84669 7.89052 4.64095 6.90839 4.65254 5.96694C4.66433 5.00761 4.85486 4.01976 5.82137 2.85647C6.13015 2.4902 5.83918 1.95002 5.34484 1.97187ZM11 6C11 7.10457 10.1046 8 9 8C7.89543 8 7 7.10457 7 6C7 4.89543 7.89543 4 9 4C10.1046 4 11 4.89543 11 6ZM15.6005 0.169678C15.497 0.0664756 15.3551 0.0066028 15.2049 0.000423004C14.6796 -0.01824 14.4051 0.585077 14.7801 0.933988C16.3028 2.39561 16.8492 4.44445 16.8492 5.95842C16.8492 7.47237 16.3091 9.51647 14.6913 11.0489C14.1242 11.564 14.9642 12.3585 15.5072 11.8206C17.3924 10.035 18 7.71459 18 5.95842C18 4.20223 17.3984 1.89547 15.6005 0.169678ZM13.0834 2.18477C12.9806 2.05778 12.824 1.98011 12.6552 1.97187C12.1608 1.95002 11.8699 2.4902 12.1786 2.85647C13.1451 4.01976 13.3357 5.00761 13.3475 5.96694C13.3591 6.90839 13.1533 7.89052 12.1326 9.10508C11.6635 9.67242 12.5529 10.3445 13.0328 9.78529C14.2032 8.39261 14.5121 7.07931 14.4983 5.95523C14.4847 4.84898 14.2083 3.53879 13.0834 2.18477Z" fill="#111111"/>
</svg>
