<svg width="678" height="280" viewBox="0 0 678 280" fill="none" xmlns="http://www.w3.org/2000/svg">
<g clip-path="url(#clip0_1595_13816)">
<path d="M320.323 -4.71465C323.534 -13.7435 328.272 -19.7629 334.535 -22.7728C340.799 -25.7827 349.137 -26.2028 359.55 -24.033L400.665 -16.6563L405.081 -29.0709L261.015 -88.9639L256.599 -76.5493L284.786 -56.4102C294.075 -49.9576 300.004 -43.6061 302.574 -37.3556C305.358 -30.5843 305.011 -22.308 301.532 -12.5268L203.375 263.416C200.431 271.693 197.594 277.423 194.864 280.606C192 284.166 188.32 286.09 183.823 286.38C179.192 287.046 172.192 286.511 162.824 284.775L133.995 279.915L129.579 292.33L239.194 337.901L552.085 167.423L477.414 377.343C474.203 386.372 469.465 392.392 463.202 395.401C456.938 398.411 448.6 398.831 438.187 396.662L397.072 389.285L392.656 401.7L536.722 461.593L541.138 449.178L512.951 429.039C504.01 422.731 498.148 416.191 495.364 409.42C492.446 403.025 492.726 394.937 496.205 385.156L616.241 47.7034L607.367 44.0143L229.192 251.478L320.323 -4.71465Z" fill="#F3BD9E" fill-opacity="0.64"/>
</g>
<defs>
<clipPath id="clip0_1595_13816">
<rect width="678" height="280" rx="16" fill="white"/>
</clipPath>
</defs>
</svg>
