<svg width="678" height="280" viewBox="0 0 678 280" fill="none" xmlns="http://www.w3.org/2000/svg">
<g clip-path="url(#clip0_1595_13784)">
<path d="M301.91 224.583C308.309 226.184 313.122 226.997 316.349 227.023C319.685 226.786 322.384 225.603 324.446 223.472C326.617 221.079 328.897 217.005 331.287 211.25L410.967 19.3723C413.357 13.6173 414.607 9.1894 414.718 6.08863C414.937 2.72628 413.976 -0.275537 411.835 -2.91682C409.803 -5.81971 406.009 -9.44028 400.452 -13.7785L383.579 -27.3675L387.164 -36L501.716 20.9088C523.431 31.6966 540.806 44.4305 553.841 59.1107C567.12 73.912 575.531 89.4505 579.073 105.726C582.616 122.002 581.074 138.118 574.448 154.075C567.387 171.079 556.776 183.163 542.616 190.329C528.7 197.616 513.418 200.752 496.768 199.739C480.471 198.585 465.124 194.432 450.729 187.28C442.189 183.038 435.25 178.486 429.911 173.625L430.685 170.696C450.016 178.721 467.75 179.958 483.889 174.407C500.027 168.855 513.093 154.046 523.087 129.98C532.973 106.175 534.463 85.9306 527.558 69.2468C520.653 52.563 506.465 38.8878 484.994 28.2212L471.087 21.3122L381.793 236.341C378.317 244.712 377.201 250.942 378.446 255.032C379.8 258.86 384.42 263.68 392.308 269.492L412.475 284.717L408.89 293.35L277.502 228.077L281.087 219.445L301.91 224.583Z" fill="#67B6FF"/>
</g>
<defs>
<clipPath id="clip0_1595_13784">
<rect width="678" height="280" rx="16" fill="white"/>
</clipPath>
</defs>
</svg>
