<svg width="678" height="280" viewBox="0 0 678 280" fill="none" xmlns="http://www.w3.org/2000/svg">
<g clip-path="url(#clip0_1595_13755)">
<path d="M165.368 195.615C160.888 205.028 159.476 213.855 161.133 222.096C163.092 230.569 168.009 239.174 175.884 247.912L204.536 282.013L198.791 295.275L74.3906 199.565L80.1364 186.303L109.769 198.652C119.559 202.97 127.308 204.109 133.017 202.071C139.201 199.863 144.707 193.651 149.535 183.434L290.367 -101.252C296.368 -113.247 298.731 -122.413 297.456 -128.752C296.182 -135.091 290.813 -144.045 281.349 -155.613L261.151 -179.994L266.897 -193.256L372.489 -111.212L346.492 242.536L553.243 27.0525L662.262 110.93L656.517 124.192L630.121 112.725C617.871 107.587 609.368 105.867 604.611 107.566C600.156 109.496 595.38 116.807 590.284 129.497L471.618 431.237C468.089 440.311 465.97 447.522 465.261 452.87C464.726 457.817 465.445 462.657 467.416 467.388C469.862 471.95 474.269 478.02 480.637 485.598L501.287 510.327L495.541 523.589L337.666 402.123L343.412 388.861L369.808 400.328C381.756 405.234 389.957 406.722 394.413 404.791C399.17 403.093 404.009 396.099 408.931 383.811L521.207 94.0339L270.959 355.623L264.173 350.402L294.969 -63.1497L165.368 195.615Z" fill="#A8D741"/>
</g>
<defs>
<clipPath id="clip0_1595_13755">
<rect width="678" height="280" rx="16" fill="white"/>
</clipPath>
</defs>
</svg>
