<?xml version="1.0" encoding="UTF-8"?><!DOCTYPE svg PUBLIC "-//W3C//DTD SVG 1.1//EN" "http://www.w3.org/Graphics/SVG/1.1/DTD/svg11.dtd"><svg xmlns="http://www.w3.org/2000/svg"><symbol id="bin" viewBox="0 0 16 16"><path d="M10.723 16a2.81 2.81 0 0 0 2.82-2.72l.323-9.955h1.512a.404.404 0 0 0 .403-.403.404.404 0 0 0-.403-.403h-4.232v-.907C11.146.725 10.42 0 9.534 0H6.47c-.886 0-1.612.725-1.612 1.612v.907H.606a.404.404 0 0 0-.403.403c0 .222.181.403.403.403h1.512l.322 9.955A2.81 2.81 0 0 0 5.261 16h5.462zM5.664 1.613c0-.443.363-.806.806-.806h3.064c.443 0 .806.363.806.806v.907H5.664v-.907zM3.266 13.24l-.322-9.935H13.08l-.342 9.935a2.022 2.022 0 0 1-2.015 1.955H5.28a2.009 2.009 0 0 1-2.015-1.955z"/><path d="M8.003 12.615a.404.404 0 0 0 .403-.403V6.186a.404.404 0 0 0-.403-.403.404.404 0 0 0-.403.403v6.026c0 .222.181.403.403.403zM5.585 12.615a.404.404 0 0 0 .403-.403V6.186a.404.404 0 0 0-.403-.403.404.404 0 0 0-.403.403v6.026c0 .222.181.403.403.403zM10.42 12.615a.404.404 0 0 0 .404-.403V6.186a.404.404 0 0 0-.403-.403.404.404 0 0 0-.403.403v6.026c0 .222.18.403.403.403z"/></symbol><symbol id="bullet-circle" viewBox="0 0 16 16"><path fill-rule="evenodd" clip-rule="evenodd" d="M8 14.2A6.2 6.2 0 1 0 8 1.8a6.2 6.2 0 0 0 0 12.4zm0 .8A7 7 0 1 0 8 1a7 7 0 0 0 0 14z"/></symbol><symbol id="check-circle-green" viewBox="0 0 24 24"><circle cx="12" cy="12" r="11" fill="#A8D741"/><path d="M17.533 7.63a.508.508 0 0 0-.3.165c-2.667 2.848-3.807 4.406-6.473 7.272l-3.156-2.662a.513.513 0 0 0-.381-.126.498.498 0 0 0-.353.198.568.568 0 0 0-.118.407.581.581 0 0 0 .188.375l3.528 2.99a.498.498 0 0 0 .696-.035c2.774-2.962 4.046-4.695 6.798-7.635a.585.585 0 0 0 .112-.642.539.539 0 0 0-.224-.247.49.49 0 0 0-.317-.06z" fill="#F9F9F9"/></symbol><symbol id="check-circle-red" viewBox="0 0 24 24"><circle cx="12" cy="12" r="11" fill="#F12260"/><path fill-rule="evenodd" clip-rule="evenodd" d="M16.941 7.06c.17.17.17.446 0 .617l-9.264 9.264a.437.437 0 1 1-.618-.617l9.264-9.265c.171-.17.448-.17.618 0z" fill="#F9F9F9"/><path fill-rule="evenodd" clip-rule="evenodd" d="M16.941 16.94a.437.437 0 0 1-.617 0L7.058 7.677a.437.437 0 1 1 .618-.617l9.264 9.264c.17.17.17.447 0 .618z" fill="#F9F9F9"/></symbol><symbol id="check" viewBox="0 0 16 16"><path d="M14.323 3.007a.58.58 0 0 0-.342.187c-3.049 3.255-4.352 5.036-7.399 8.31l-3.606-3.04a.585.585 0 0 0-.436-.146.568.568 0 0 0-.223.07.604.604 0 0 0-.18.157.648.648 0 0 0-.134.465.664.664 0 0 0 .214.43l4.032 3.415a.569.569 0 0 0 .796-.04c3.17-3.384 4.623-5.365 7.768-8.724a.668.668 0 0 0 .128-.734.615.615 0 0 0-.255-.283.56.56 0 0 0-.363-.067z" fill="#A8D741"/></symbol><symbol id="close" viewBox="0 0 24 24"><path fill-rule="evenodd" clip-rule="evenodd" d="M20.47 3.53a.749.749 0 0 1 0 1.059L4.59 20.471a.749.749 0 1 1-1.06-1.059L19.413 3.53a.749.749 0 0 1 1.059 0z"/><path fill-rule="evenodd" clip-rule="evenodd" d="M20.47 20.47a.749.749 0 0 1-1.058 0L3.53 4.588a.749.749 0 0 1 1.059-1.059L20.47 19.411a.749.749 0 0 1 0 1.059z"/></symbol><symbol id="eye" viewBox="0 0 24 24"><path fill-rule="evenodd" clip-rule="evenodd" d="M.118 12.323C.35 12.596 5.84 19 12 19s11.651-6.404 11.882-6.677a.5.5 0 0 0 .03-.607C23.721 11.441 19.18 5 12 5 5.84 5 .35 11.404.118 11.677a.502.502 0 0 0 0 .646zM12 18c-4.939 0-9.635-4.71-10.828-6C2.363 10.71 7.054 6 12 6c5.78 0 9.858 4.703 10.854 5.973C21.704 13.222 16.981 18 12 18zm-4-6c0 2.206 1.794 4 4 4s4-1.794 4-4-1.794-4-4-4-4 1.794-4 4zm1 0c0-1.654 1.346-3 3-3s3 1.346 3 3-1.346 3-3 3-3-1.346-3-3z"/></symbol><symbol id="file" viewBox="0 0 24 24"><g stroke="#000" stroke-linejoin="round" stroke-opacity=".32"><path d="M13 3v6h6"/><path d="M19 8l-5-5H5v18h14z" stroke-linecap="round"/></g></symbol><symbol id="folder" viewBox="0 0 24 24"><path d="M3 4.5h-.5v15h19v-13H10.309l-.862-1.724L9.31 4.5H9z" fill="#fff7cb" stroke="#fad03d" stroke-linecap="round"/></symbol><symbol id="image" viewBox="0 0 24 24"><g stroke="#000" stroke-opacity=".32"><path d="M21 3v18H3V3z" stroke-linecap="round" stroke-linejoin="round"/><path d="M3 14l4-4 11 11" stroke-linecap="round"/><path clip-rule="evenodd" d="M13.5 10a2.5 2.5 0 1 0 0-5 2.5 2.5 0 0 0 0 5z"/><path d="M13.5 16.5L21 9"/></g></symbol><symbol id="lock-grey" viewBox="0 0 24 24"><path d="M6 10.525v4.756C6 18.44 8.686 21 12 21c3.313 0 6-2.56 6-5.719v-4.756H6zm6.679 5.034l.34 2.086h-2.037l.339-2.086a1.268 1.268 0 0 1-.667-1.102c0-.709.602-1.283 1.346-1.283.743 0 1.346.574 1.346 1.283 0 .471-.27.879-.667 1.102zM9.475 7.347c0-1.326 1.133-2.406 2.525-2.406s2.524 1.08 2.524 2.406v1.884h2.037V7.347C16.56 4.95 14.515 3 12 3S7.44 4.95 7.44 7.347v1.884h2.036V7.347z" fill="#000" fill-opacity=".32"/></symbol><symbol id="lock2" viewBox="0 0 16 16"><path fill-rule="evenodd" clip-rule="evenodd" d="M12.384 5.942h1.27c.191 0 .346.155.346.346v3.725c0 3.309-2.691 6-6 6-3.308 0-6-2.691-6-6V6.288c0-.191.155-.346.346-.346h1.27V4.385A4.39 4.39 0 0 1 8 0a4.39 4.39 0 0 1 4.384 4.385v1.557zM8 .692a3.696 3.696 0 0 0-3.692 3.693v1.557h1.057V4.389A2.638 2.638 0 0 1 8 1.754a2.638 2.638 0 0 1 2.635 2.635v1.553h1.057V4.385A3.697 3.697 0 0 0 8 .692zm-1.943 5.25h3.885V4.389A1.945 1.945 0 0 0 8 2.447a1.945 1.945 0 0 0-1.943 1.942v1.553zM8 15.322a5.314 5.314 0 0 0 5.307-5.309V6.634H2.692v3.38A5.314 5.314 0 0 0 8 15.32zm-1.166-3.4l.297-1.335a1.31 1.31 0 0 1-.441-.974 1.311 1.311 0 0 1 2.619 0c0 .373-.165.728-.441.974l.297 1.335a.347.347 0 0 1-.338.421H7.171a.346.346 0 0 1-.337-.421zm1.782-2.31a.618.618 0 0 0-1.234 0c0 .22.116.418.31.531.13.076.197.227.164.375l-.253 1.133h.792l-.252-1.133a.347.347 0 0 1 .164-.375.61.61 0 0 0 .31-.53z"/></symbol><symbol id="pause-larger" viewBox="0 0 24 24"><path fill-rule="evenodd" clip-rule="evenodd" d="M8.25 3c.414 0 .75.59.75.9v16.2c0 .31-.336.9-.75.9s-.75-.59-.75-.9V3.9c0-.31.336-.9.75-.9zM15.75 3c.414 0 .75.59.75.9v16.2c0 .31-.336.9-.75.9s-.75-.59-.75-.9V3.9c0-.31.336-.9.75-.9z" fill="#000"/></symbol><symbol id="pause" viewBox="0 0 16 16"><path fill-rule="evenodd" clip-rule="evenodd" d="M5.5 2c.276 0 .5.393.5.6v10.8c0 .207-.224.6-.5.6s-.5-.393-.5-.6V2.6c0-.207.224-.6.5-.6zM10.5 2c.276 0 .5.393.5.6v10.8c0 .207-.224.6-.5.6s-.5-.393-.5-.6V2.6c0-.207.224-.6.5-.6z"/></symbol><symbol id="play" viewBox="0 0 24 24"><path d="M8 3.13c.492-.233 1.163-.145 1.498.198l7.13 7.272a2 2 0 0 1 0 2.8l-7.13 7.272c-.335.343-1.006.43-1.498.198V3.13z"/></symbol><symbol id="prev" viewBox="0 0 24 24"><path fill-rule="evenodd" clip-rule="evenodd" d="M15.314 21.51a.75.75 0 0 0 .197-1.041l-5.337-7.828 5.337-7.827a.75.75 0 0 0-1.24-.845L8.36 12.64l5.913 8.673a.75.75 0 0 0 1.042.197z"/></symbol><symbol id="union" viewBox="0 0 18 12"><path fill-rule="evenodd" clip-rule="evenodd" d="M2.795 0A.594.594 0 0 0 2.4.17C.602 1.895 0 4.202 0 5.958c0 1.757.608 4.077 2.493 5.863.543.537 1.383-.257.816-.772C1.69 9.516 1.15 7.472 1.15 5.959c0-1.515.546-3.563 2.069-5.025.375-.349.1-.952-.425-.934zm2.55 1.972a.587.587 0 0 0-.428.213c-1.125 1.354-1.402 2.664-1.415 3.77-.014 1.124.295 2.438 1.465 3.83.48.56 1.37-.113.9-.68-1.02-1.214-1.226-2.197-1.214-3.138.011-.96.202-1.947 1.168-3.11.31-.367.018-.907-.476-.885zM11 6a2 2 0 1 1-4 0 2 2 0 0 1 4 0zM15.6.17a.594.594 0 0 0-.395-.17c-.525-.018-.8.585-.425.934 1.523 1.462 2.07 3.51 2.07 5.024 0 1.514-.54 3.558-2.159 5.09-.567.516.273 1.31.816.773C17.392 10.035 18 7.715 18 5.958c0-1.756-.602-4.063-2.4-5.788zm-2.517 2.015a.587.587 0 0 0-.428-.213c-.494-.022-.785.518-.476.884.966 1.164 1.157 2.152 1.168 3.11.012.942-.194 1.925-1.214 3.14-.47.566.42 1.239.9.68 1.17-1.393 1.48-2.707 1.465-3.83-.013-1.107-.29-2.417-1.415-3.771z" fill="#111"/></symbol></svg>