<svg width="24" height="24" viewBox="0 0 24 24" fill="none" xmlns="http://www.w3.org/2000/svg">
<path fill-rule="evenodd" clip-rule="evenodd" d="M8.25 3C8.66421 3 9 3.58933 9 3.9L9 20.1C9 20.4107 8.66421 21 8.25 21C7.83579 21 7.5 20.4107 7.5 20.1L7.5 3.9C7.5 3.58933 7.83579 3 8.25 3Z" fill="black"/>
<path fill-rule="evenodd" clip-rule="evenodd" d="M15.75 3C16.1642 3 16.5 3.58933 16.5 3.9L16.5 20.1C16.5 20.4107 16.1642 21 15.75 21C15.3358 21 15 20.4107 15 20.1L15 3.9C15 3.58933 15.3358 3 15.75 3Z" fill="black"/>
</svg>
